<svg width="16" height="16" viewBox="0 0 16 16" fill="none" xmlns="http://www.w3.org/2000/svg">
<g opacity="0.6">
<path fill-rule="evenodd" clip-rule="evenodd" d="M9.53536 4.63877L9.99703 4.07056C10.1748 3.8518 10.4843 3.82587 10.6986 4C10.9066 4.16904 10.9463 4.48805 10.7731 4.70116L4.90016 11.9294C4.72241 12.1482 4.41291 12.1741 4.19859 12C3.99054 11.831 3.9509 11.512 4.12404 11.2989L4.5371 10.7905C2.49616 9.9488 1.2438 8.65833 1.2438 8.65833C0.832906 8.29474 0.821577 7.7016 1.2438 7.34168C1.2438 7.34168 4.00155 4.5 8.00155 4.5C8.53627 4.5 9.04875 4.55079 9.53536 4.63877ZM11.4095 5.18669C13.4826 6.02764 14.7565 7.34168 14.7565 7.34168C15.167 7.70526 15.1783 8.29841 14.7565 8.65833C14.7565 8.65833 12.0016 11.5 8.00155 11.5C7.43175 11.5 6.88715 11.4423 6.37215 11.3434L7.17591 10.3611C7.43389 10.4511 7.71114 10.5 7.99981 10.5C9.38053 10.5 10.4998 9.38072 10.4998 8C10.4998 7.53433 10.3725 7.0984 10.1508 6.72512L11.4095 5.18669ZM7.88401 9.4956L9.4431 7.59004C9.48004 7.72035 9.49981 7.85787 9.49981 8C9.49981 8.82843 8.82824 9.5 7.99981 9.5C7.96085 9.5 7.92223 9.49852 7.88401 9.4956Z" fill="#333333"/>
</g>
</svg>
